<svg width="31" height="30" viewBox="0 0 31 30" fill="none" xmlns="http://www.w3.org/2000/svg">
<path fill-rule="evenodd" clip-rule="evenodd" d="M24.1341 19.393C23.4516 19.393 22.4872 19.4857 21.4833 19.6208C21.0143 19.6839 20.6567 20.0352 20.5924 20.4959C20.4549 21.4821 20.3606 22.4295 20.3606 23.0999C20.3606 23.7704 20.4549 24.7177 20.5924 25.7039C20.6567 26.1647 21.0143 26.516 21.4833 26.5791C22.4872 26.7142 23.4516 26.8068 24.1341 26.8068C24.8166 26.8068 25.781 26.7142 26.7849 26.5791C27.2539 26.516 27.6115 26.1647 27.6757 25.7039C27.8132 24.7177 27.9076 23.7704 27.9076 23.0999C27.9076 22.4295 27.8132 21.4821 27.6757 20.4959C27.6115 20.0352 27.2539 19.6839 26.7849 19.6208C25.781 19.4857 24.8166 19.393 24.1341 19.393ZM21.0737 16.6827C19.2626 16.9263 17.8496 18.3144 17.6016 20.0935C17.4593 21.114 17.3418 22.2224 17.3418 23.0999C17.3418 23.9775 17.4593 25.0859 17.6016 26.1063C17.8496 27.8855 19.2626 29.2735 21.0737 29.5172C22.1125 29.657 23.2408 29.7724 24.1341 29.7724C25.0274 29.7724 26.1557 29.657 27.1945 29.5172C29.0056 29.2735 30.4186 27.8855 30.6666 26.1063C30.8089 25.0859 30.9264 23.9775 30.9264 23.0999C30.9264 22.2224 30.8089 21.114 30.6666 20.0935C30.4186 18.3144 29.0056 16.9263 27.1945 16.6827C26.1557 16.5429 25.0274 16.4275 24.1341 16.4275C23.2408 16.4275 22.1125 16.5429 21.0737 16.6827Z" fill="#5F6388"/>
<path fill-rule="evenodd" clip-rule="evenodd" d="M7.53057 19.393C6.84805 19.393 5.88371 19.4857 4.87979 19.6208C4.41077 19.6839 4.05315 20.0352 3.98891 20.4959C3.85142 21.4821 3.75708 22.4295 3.75708 23.0999C3.75708 23.7704 3.85142 24.7177 3.98891 25.7039C4.05315 26.1647 4.41077 26.516 4.87979 26.5791C5.88371 26.7142 6.84805 26.8068 7.53057 26.8068C8.2131 26.8068 9.17744 26.7142 10.1814 26.5791C10.6504 26.516 11.008 26.1647 11.0722 25.7039C11.2097 24.7177 11.3041 23.7704 11.3041 23.0999C11.3041 22.4295 11.2097 21.4821 11.0722 20.4959C11.008 20.0352 10.6504 19.6839 10.1814 19.6208C9.17744 19.4857 8.2131 19.393 7.53057 19.393ZM4.47017 16.6827C2.65904 16.9263 1.24608 18.3144 0.998036 20.0935C0.855771 21.114 0.738281 22.2224 0.738281 23.0999C0.738281 23.9775 0.855771 25.0859 0.998036 26.1063C1.24608 27.8855 2.65904 29.2735 4.47017 29.5172C5.50895 29.657 6.63725 29.7724 7.53057 29.7724C8.42389 29.7724 9.55219 29.657 10.591 29.5172C12.4021 29.2735 13.8151 27.8855 14.0631 26.1063C14.2054 25.0859 14.3229 23.9775 14.3229 23.0999C14.3229 22.2224 14.2054 21.114 14.0631 20.0935C13.8151 18.3144 12.4021 16.9263 10.591 16.6827C9.55219 16.5429 8.42389 16.4275 7.53057 16.4275C6.63725 16.4275 5.50895 16.5429 4.47017 16.6827Z" fill="#5F6388"/>
<path fill-rule="evenodd" clip-rule="evenodd" d="M24.1341 3.08272C23.4516 3.08272 22.4872 3.1754 21.4833 3.31046C21.0143 3.37356 20.6567 3.72488 20.5924 4.18562C20.4549 5.17182 20.3606 6.11915 20.3606 6.78963C20.3606 7.46011 20.4549 8.40744 20.5924 9.39365C20.6567 9.85438 21.0143 10.2057 21.4833 10.2688C22.4872 10.4039 23.4516 10.4965 24.1341 10.4965C24.8166 10.4965 25.781 10.4039 26.7849 10.2688C27.2539 10.2057 27.6115 9.85438 27.6757 9.39365C27.8132 8.40744 27.9076 7.46011 27.9076 6.78963C27.9076 6.11915 27.8132 5.17182 27.6757 4.18562C27.6115 3.72488 27.2539 3.37356 26.7849 3.31046C25.781 3.1754 24.8166 3.08272 24.1341 3.08272ZM21.0737 0.372359C19.2626 0.616024 17.8496 2.00406 17.6016 3.78323C17.4593 4.80368 17.3418 5.91207 17.3418 6.78963C17.3418 7.66719 17.4593 8.77558 17.6016 9.79603C17.8496 11.5752 19.2626 12.9632 21.0737 13.2069C22.1125 13.3467 23.2408 13.4621 24.1341 13.4621C25.0274 13.4621 26.1557 13.3467 27.1945 13.2069C29.0056 12.9632 30.4186 11.5752 30.6666 9.79603C30.8089 8.77558 30.9264 7.66719 30.9264 6.78963C30.9264 5.91207 30.8089 4.80368 30.6666 3.78323C30.4186 2.00406 29.0056 0.616024 27.1945 0.372359C26.1557 0.232604 25.0274 0.117188 24.1341 0.117188C23.2408 0.117188 22.1125 0.232604 21.0737 0.372359Z" fill="#5F6388"/>
<path fill-rule="evenodd" clip-rule="evenodd" d="M7.53057 3.08272C6.84805 3.08272 5.88371 3.1754 4.87979 3.31046C4.41077 3.37356 4.05315 3.72488 3.98891 4.18562C3.85142 5.17182 3.75708 6.11915 3.75708 6.78963C3.75708 7.46011 3.85142 8.40744 3.98891 9.39365C4.05315 9.85438 4.41077 10.2057 4.87979 10.2688C5.88371 10.4039 6.84805 10.4965 7.53057 10.4965C8.2131 10.4965 9.17744 10.4039 10.1814 10.2688C10.6504 10.2057 11.008 9.85438 11.0722 9.39365C11.2097 8.40744 11.3041 7.46011 11.3041 6.78963C11.3041 6.11915 11.2097 5.17182 11.0722 4.18562C11.008 3.72488 10.6504 3.37356 10.1814 3.31046C9.17744 3.1754 8.2131 3.08272 7.53057 3.08272ZM4.47017 0.372359C2.65904 0.616024 1.24608 2.00406 0.998036 3.78323C0.855771 4.80368 0.738281 5.91207 0.738281 6.78963C0.738281 7.66719 0.855771 8.77558 0.998036 9.79603C1.24608 11.5752 2.65904 12.9632 4.47017 13.2069C5.50895 13.3467 6.63725 13.4621 7.53057 13.4621C8.42389 13.4621 9.55219 13.3467 10.591 13.2069C12.4021 12.9632 13.8151 11.5752 14.0631 9.79603C14.2054 8.77558 14.3229 7.66719 14.3229 6.78963C14.3229 5.91207 14.2054 4.80368 14.0631 3.78323C13.8151 2.00406 12.4021 0.616024 10.591 0.372359C9.55219 0.232604 8.42389 0.117188 7.53057 0.117188C6.63725 0.117188 5.50895 0.232604 4.47017 0.372359Z" fill="#5F6388"/>
</svg>
