<svg width="50" height="150" viewBox="0 0 40 106" fill="none" xmlns="http://www.w3.org/2000/svg">
<path fill-rule="evenodd" clip-rule="evenodd" d="M40 17.5C40 12.6675 38.0474 8.54272 34.1421 5.12563C30.2369 1.70854 25.5228 0 20 0C14.4772 0 9.76311 1.70854 5.85787 5.12563C1.95263 8.54272 3.8147e-06 12.6675 0 17.5C3.8147e-06 22.3325 1.95263 26.4573 5.85787 29.8744C9.76311 33.2915 14.4772 35 20 35C25.5228 35 30.2369 33.2915 34.1421 29.8744C38.0474 26.4573 40 22.3325 40 17.5Z" fill="#393862"/>
<path fill-rule="evenodd" clip-rule="evenodd" d="M20 71H0V88.5C0 98.165 8.9543 106 20 106H40V88.5C40 78.835 31.0457 71 20 71Z" fill="#C5BAF8"/>
<path fill-rule="evenodd" clip-rule="evenodd" d="M40 35H0V71H20C31.0457 71 40 62.9411 40 53V35Z" fill="#202040"/>
</svg>
