<svg className='inline mr-2.5' width="29" height="29" viewBox="0 0 29 29" fill="none" xmlns="http://www.w3.org/2000/svg">
                                        <g clip-path="url(#clip0_347_559)">
                                            <path d="M28.227 14.8223C28.227 13.8706 28.1499 12.9138 27.9853 11.9775H14.78V17.3687H22.342C22.0283 19.1074 21.02 20.6456 19.5436 21.623V25.121H24.0551C26.7044 22.6827 28.227 19.0817 28.227 14.8223Z" fill="#4285F4" />
                                            <path d="M14.78 28.5009C18.5559 28.5009 21.7402 27.2611 24.0602 25.1211L19.5487 21.6231C18.2935 22.477 16.6731 22.9606 14.7852 22.9606C11.1328 22.9606 8.03596 20.4965 6.92481 17.1836H2.26929V20.7897C4.64592 25.5172 9.48663 28.5009 14.78 28.5009Z" fill="#34A853" />
                                            <path d="M6.91966 17.1842C6.33322 15.4454 6.33322 13.5626 6.91966 11.8239V8.21777H2.26928C0.283612 12.1737 0.283612 16.8343 2.26928 20.7903L6.91966 17.1842Z" fill="#FBBC04" />
                                            <path d="M14.78 6.04127C16.776 6.01041 18.7051 6.76146 20.1506 8.14012L24.1477 4.14305C21.6167 1.76642 18.2575 0.45979 14.78 0.500943C9.48663 0.500943 4.64592 3.48459 2.26929 8.21728L6.91966 11.8234C8.02567 8.50536 11.1276 6.04127 14.78 6.04127Z" fill="#EA4335" />
                                        </g>
                                        <defs>
                                            <clipPath id="clip0_347_559">
                                                <rect width="28" height="28" fill="white" transform="translate(0.5 0.5)" />
                                            </clipPath>
                                        </defs>
                                    </svg>