<svg width="48" height="57" viewBox="0 0 48 57" fill="none" xmlns="http://www.w3.org/2000/svg">
<path d="M18 49.875H10C8.93913 49.875 7.92172 49.3746 7.17157 48.4838C6.42143 47.593 6 46.3848 6 45.125V11.875C6 10.6152 6.42143 9.40704 7.17157 8.51624C7.92172 7.62544 8.93913 7.125 10 7.125H18" fill="white"/>
<path d="M32 40.375L42 28.5L32 16.625" fill="white"/>
<path d="M18 49.875H10C8.93913 49.875 7.92172 49.3746 7.17157 48.4838C6.42143 47.593 6 46.3848 6 45.125V11.875C6 10.6152 6.42143 9.40704 7.17157 8.51624C7.92172 7.62544 8.93913 7.125 10 7.125H18M32 40.375L42 28.5M42 28.5L32 16.625M42 28.5H18" stroke="#B2B2B2" stroke-width="4" stroke-linecap="round" stroke-linejoin="round"/>
</svg>
