<svg width="31" height="30" viewBox="0 0 31 30" fill="none" xmlns="http://www.w3.org/2000/svg">
<path d="M29.1616 11.1949L26.3088 10.2607L27.6522 7.62142C27.7884 7.34516 27.8339 7.03419 27.7825 6.73142C27.7312 6.42865 27.5854 6.14901 27.3654 5.93107L24.1504 2.77278C23.9273 2.55345 23.6399 2.40832 23.3286 2.35779C23.0172 2.30725 22.6976 2.35386 22.4146 2.49105L19.7278 3.81071L18.7769 1.00829C18.6765 0.716169 18.4859 0.462073 18.2316 0.281357C17.9773 0.100641 17.6719 0.00229484 17.3581 4.94285e-06H12.8299C12.5135 -0.000797473 12.2048 0.0961162 11.9475 0.277048C11.6901 0.457979 11.4972 0.713777 11.396 1.00829L10.445 3.81071L7.75831 2.49105C7.47709 2.35728 7.16054 2.31253 6.85233 2.36299C6.54412 2.41345 6.25945 2.55663 6.0376 2.77278L2.82258 5.93107C2.59932 6.15017 2.45158 6.4325 2.40014 6.73836C2.3487 7.04423 2.39614 7.35824 2.53579 7.63625L3.87916 10.2756L1.0264 11.2097C0.729033 11.3084 0.470372 11.4956 0.28641 11.7454C0.102449 11.9953 0.00233606 12.2952 5.03163e-06 12.6035V17.0518C-0.000811797 17.3627 0.0978427 17.6659 0.282024 17.9187C0.466205 18.1714 0.726598 18.361 1.0264 18.4604L3.87916 19.3946L2.53579 22.0339C2.39962 22.3102 2.35407 22.6211 2.40544 22.9239C2.4568 23.2267 2.60256 23.5063 2.82258 23.7242L6.0376 26.8825C6.26064 27.1019 6.54804 27.247 6.8594 27.2975C7.17076 27.3481 7.49041 27.3015 7.77341 27.1643L10.4601 25.8446L11.4111 28.647C11.5123 28.9415 11.7052 29.1973 11.9625 29.3783C12.2199 29.5592 12.5286 29.6561 12.845 29.6553H17.3732C17.6896 29.6561 17.9983 29.5592 18.2556 29.3783C18.5129 29.1973 18.7059 28.9415 18.8071 28.647L19.758 25.8446L22.4448 27.1643C22.7242 27.2947 23.0376 27.3376 23.3427 27.2872C23.6478 27.2368 23.9297 27.0955 24.1504 26.8825L27.3654 23.7242C27.5887 23.5051 27.7364 23.2228 27.7878 22.9169C27.8393 22.6111 27.7918 22.2971 27.6522 22.0191L26.3088 19.3797L29.1616 18.4456C29.4589 18.3469 29.7176 18.1597 29.9016 17.9099C30.0855 17.6601 30.1856 17.3601 30.188 17.0518V12.6035C30.1888 12.2927 30.0901 11.9894 29.906 11.7366C29.7218 11.4839 29.4614 11.2944 29.1616 11.1949ZM27.1692 15.9842L25.3579 16.5773C24.9414 16.71 24.5593 16.9302 24.238 17.2225C23.9168 17.5148 23.6641 17.8722 23.4975 18.27C23.3309 18.6678 23.2544 19.0965 23.2734 19.5262C23.2923 19.9559 23.4061 20.3765 23.607 20.7587L24.4674 22.4491L22.807 24.0801L21.1316 23.1904C20.7445 23.001 20.3205 22.8955 19.8883 22.881C19.4561 22.8665 19.0258 22.9434 18.6265 23.1065C18.2271 23.2696 17.8682 23.5151 17.5738 23.8263C17.2795 24.1375 17.0566 24.5073 16.9204 24.9105L16.3166 26.6898H13.9167L13.3129 24.9105C13.1778 24.5013 12.9537 24.1259 12.6562 23.8103C12.3586 23.4947 11.9948 23.2465 11.5898 23.0829C11.1848 22.9193 10.7485 22.8441 10.311 22.8627C9.87358 22.8813 9.44547 22.9931 9.0564 23.1904L7.33568 24.0356L5.67534 22.4046L6.58098 20.7587C6.78187 20.3765 6.89572 19.9559 6.91463 19.5262C6.93353 19.0965 6.85705 18.6678 6.69047 18.27C6.5239 17.8722 6.27122 17.5148 5.94997 17.2225C5.62872 16.9302 5.24659 16.71 4.83008 16.5773L3.0188 15.9842V13.6711L4.83008 13.078C5.24659 12.9453 5.62872 12.7251 5.94997 12.4328C6.27122 12.1405 6.5239 11.7831 6.69047 11.3853C6.85705 10.9875 6.93353 10.5589 6.91463 10.1291C6.89572 9.69936 6.78187 9.2788 6.58098 8.8966L5.72062 7.25073L7.38096 5.61968L9.0564 6.46486C9.44547 6.66221 9.87358 6.77405 10.311 6.79262C10.7485 6.81119 11.1848 6.73605 11.5898 6.57242C11.9948 6.40878 12.3586 6.16056 12.6562 5.84498C12.9537 5.5294 13.1778 5.15401 13.3129 4.74485L13.9167 2.96554H16.2713L16.8751 4.74485C17.0102 5.15401 17.2343 5.5294 17.5318 5.84498C17.8294 6.16056 18.1932 6.40878 18.5982 6.57242C19.0031 6.73605 19.4395 6.81119 19.8769 6.79262C20.3144 6.77405 20.7425 6.66221 21.1316 6.46486L22.8523 5.61968L24.5126 7.25073L23.607 8.8966C23.4142 9.27684 23.3067 9.69335 23.292 10.1179C23.2772 10.5425 23.3555 10.9652 23.5216 11.3575C23.6876 11.7498 23.9375 12.1024 24.2543 12.3916C24.5711 12.6807 24.9475 12.8997 25.3579 13.0335L27.1692 13.6266V15.9842ZM15.094 8.8966C13.8999 8.8966 12.7326 9.24445 11.7397 9.89616C10.7468 10.5479 9.97295 11.4742 9.51598 12.5579C9.05901 13.6417 8.93944 14.8342 9.17241 15.9847C9.40537 17.1353 9.98039 18.1921 10.8248 19.0215C11.6691 19.851 12.7449 20.4159 13.9161 20.6448C15.0873 20.8736 16.3013 20.7561 17.4045 20.3072C18.5077 19.8583 19.4506 19.0981 20.1141 18.1228C20.7775 17.1474 21.1316 16.0007 21.1316 14.8277C21.1316 13.2546 20.4955 11.7461 19.3632 10.6338C18.2309 9.52147 16.6953 8.8966 15.094 8.8966ZM15.094 17.7932C14.4969 17.7932 13.9133 17.6193 13.4168 17.2934C12.9204 16.9675 12.5335 16.5044 12.305 15.9625C12.0765 15.4206 12.0167 14.8244 12.1332 14.2491C12.2497 13.6739 12.5372 13.1454 12.9594 12.7307C13.3816 12.316 13.9195 12.0335 14.5051 11.9191C15.0906 11.8047 15.6976 11.8634 16.2492 12.0879C16.8008 12.3123 17.2723 12.6924 17.604 13.1801C17.9357 13.6678 18.1128 14.2411 18.1128 14.8277C18.1128 15.6142 17.7947 16.3685 17.2286 16.9246C16.6625 17.4807 15.8946 17.7932 15.094 17.7932Z" fill="#5F6388"/>
</svg>
