<svg width="31" height="30" viewBox="0 0 31 30" fill="none" xmlns="http://www.w3.org/2000/svg">
<path d="M28.9239 0.278528C27.8431 0.0975376 26.7487 0.00437527 25.6521 6.37703e-06C21.9103 -0.00297598 18.2466 1.04017 15.0977 3.00511C11.9406 1.06597 8.27752 0.0484263 4.54331 0.0733014C3.44663 0.0776703 2.35223 0.170833 1.27145 0.351823C0.917439 0.41116 0.596848 0.591437 0.367415 0.860187C0.137982 1.12894 0.0147829 1.4685 0.0200054 1.81772V19.4085C0.0167763 19.6239 0.0624132 19.8374 0.153669 20.0337C0.244925 20.23 0.379557 20.4043 0.547985 20.5443C0.716414 20.6842 0.9145 20.7864 1.12815 20.8434C1.3418 20.9005 1.56576 20.9111 1.78409 20.8745C3.94475 20.5107 6.15843 20.5711 8.29474 21.0519C10.431 21.5328 12.4468 22.4244 14.2232 23.6743L14.4041 23.7769H14.57C14.7372 23.8447 14.9165 23.8796 15.0977 23.8796C15.2788 23.8796 15.4582 23.8447 15.6254 23.7769H15.7913L15.9722 23.6743C17.7362 22.3965 19.7462 21.476 21.8829 20.9673C24.0196 20.4587 26.2396 20.3723 28.4113 20.7132C28.6296 20.7498 28.8536 20.7393 29.0672 20.6822C29.2809 20.6251 29.479 20.523 29.6474 20.383C29.8158 20.243 29.9504 20.0687 30.0417 19.8724C30.133 19.6761 30.1786 19.4627 30.1754 19.2473V1.65648C30.1597 1.32248 30.027 1.00373 29.7994 0.753096C29.5718 0.502466 29.2629 0.335019 28.9239 0.278528ZM13.5899 19.7604C10.8004 18.3336 7.69533 17.5889 4.54331 17.5908C4.04575 17.5908 3.54818 17.5908 3.03554 17.5908V2.93181C3.53771 2.90367 4.04114 2.90367 4.54331 2.93181C7.75996 2.92835 10.9064 3.84608 13.5899 5.57043V19.7604ZM27.1598 17.6495C26.6472 17.6495 26.1496 17.6495 25.6521 17.6495C22.5 17.6476 19.395 18.3922 16.6055 19.819V5.57043C19.289 3.84608 22.4354 2.92835 25.6521 2.93181C26.1542 2.90367 26.6577 2.90367 27.1598 2.93181V17.6495ZM28.9239 23.733C27.8431 23.552 26.7487 23.4588 25.6521 23.4544C21.9103 23.4515 18.2466 24.4946 15.0977 26.4595C11.9487 24.4946 8.28504 23.4515 4.54331 23.4544C3.44663 23.4588 2.35223 23.552 1.27145 23.733C1.07518 23.7632 0.887006 23.8309 0.717744 23.9322C0.548481 24.0334 0.401473 24.1662 0.285171 24.3229C0.16887 24.4795 0.0855714 24.657 0.0400644 24.8451C-0.00544254 25.0331 -0.0122595 25.2281 0.0200054 25.4187C0.0966282 25.7994 0.325314 26.135 0.655967 26.3521C0.986621 26.5692 1.39228 26.65 1.78409 26.5768C3.94475 26.2131 6.15843 26.2734 8.29474 26.7543C10.431 27.2352 12.4468 28.1268 14.2232 29.3767C14.4785 29.5534 14.7842 29.6484 15.0977 29.6484C15.4112 29.6484 15.7168 29.5534 15.9722 29.3767C17.7486 28.1268 19.7643 27.2352 21.9006 26.7543C24.0369 26.2734 26.2506 26.2131 28.4113 26.5768C28.8031 26.65 29.2088 26.5692 29.5394 26.3521C29.8701 26.135 30.0987 25.7994 30.1754 25.4187C30.2076 25.2281 30.2008 25.0331 30.1553 24.8451C30.1098 24.657 30.0265 24.4795 29.9102 24.3229C29.7939 24.1662 29.6469 24.0334 29.4776 23.9322C29.3084 23.8309 29.1202 23.7632 28.9239 23.733Z" fill="#5F6388"/>
</svg>
